<svg width="240" height="512" viewBox="0 0 240 512" fill="none" xmlns="http://www.w3.org/2000/svg">
<g clip-path="url(#clip0_401_178)">
<rect x="109.812" y="185.601" width="17.5117" height="323.966" fill="#5CDB95" stroke="#05386B" stroke-width="4.86436"/>
<path d="M18.0837 115.239C16.0448 99.6895 18.6759 84.0116 25.4228 65.3892C44.6716 64.9549 59.8041 67.521 73.6529 74.5413C87.9029 81.7648 101.027 93.8213 115.903 112.722C124.343 126.016 126.027 138.914 123.406 150.033C120.768 161.223 113.727 170.796 104.43 177.253C85.8822 190.135 58.7081 190.443 40.3253 166.538C27.2358 147.317 20.1782 131.214 18.0837 115.239Z" fill="#5CDB95" stroke="#05386B" stroke-width="4.86436"/>
<rect x="35.8157" y="86.7863" width="4.92369" height="104.197" transform="rotate(-35.4614 35.8157 86.7863)" fill="#05386B"/>
<rect x="63.2517" y="92.7428" width="3.82954" height="30.6363" transform="rotate(0.538611 63.2517 92.7428)" fill="#05386B"/>
<rect x="89.9595" y="130.239" width="3.82954" height="30.6363" transform="rotate(0.538611 89.9595 130.239)" fill="#05386B"/>
<rect x="35.8022" y="115.158" width="3.82954" height="30.6363" transform="rotate(-71.4614 35.8022 115.158)" fill="#05386B"/>
<rect x="52.9141" y="135.881" width="3.82954" height="26.3189" transform="rotate(-71.4614 52.9141 135.881)" fill="#05386B"/>
<rect x="76.6853" y="116.186" width="3.82954" height="26.3189" transform="rotate(0.538611 76.6853 116.186)" fill="#05386B"/>
<rect x="62.5103" y="152.654" width="3.82954" height="30.6363" transform="rotate(-71.4614 62.5103 152.654)" fill="#05386B"/>
<path d="M99.9744 52.6526C118.808 32.1915 143.141 18.0768 176.054 6.23076C198.568 31.7662 212.384 55.1721 218.591 82.0137C224.9 109.295 223.409 140.38 214.799 181.228C206.402 207.631 190.849 224.588 172.721 233.682C154.527 242.808 133.569 244.098 114.322 238.827C75.8797 228.299 44.6156 191.756 56.1966 139.795C67.216 100.948 80.8496 73.4304 99.9744 52.6526Z" fill="#5CDB95" stroke="#05386B" stroke-width="4.86436"/>
<rect x="158.671" y="45.8164" width="8.51102" height="180.114" transform="rotate(14.6363 158.671 45.8164)" fill="#05386B"/>
<rect x="181.195" y="88.8035" width="6.61968" height="52.9574" transform="rotate(50.6363 181.195 88.8035)" fill="#05386B"/>
<rect x="161.087" y="165.798" width="6.61968" height="52.9574" transform="rotate(50.6363 161.087 165.798)" fill="#05386B"/>
<rect x="121.034" y="77.2588" width="6.61968" height="52.9574" transform="rotate(-21.3637 121.034 77.2588)" fill="#05386B"/>
<rect x="112.527" y="122.929" width="6.61968" height="45.4944" transform="rotate(-21.3637 112.527 122.929)" fill="#05386B"/>
<rect x="165.004" y="132.612" width="6.61968" height="45.4944" transform="rotate(50.6363 165.004 132.612)" fill="#05386B"/>
<rect x="100.926" y="154.253" width="6.61968" height="52.9574" transform="rotate(-21.3637 100.926 154.253)" fill="#05386B"/>
</g>
<defs>
<clipPath id="clip0_401_178">
<rect width="240" height="512" fill="white"/>
</clipPath>
</defs>
</svg>
