<svg width="512" height="512" viewBox="0 0 512 512" fill="none" xmlns="http://www.w3.org/2000/svg">
<g clip-path="url(#clip0_406_2)">
<path d="M225.661 198.1L239.881 180.967L263.524 200.59L249.304 217.723L225.661 198.1Z" fill="#333333"/>
<path d="M404.604 346.712L418.825 329.579L479.491 379.93L465.271 397.064L404.604 346.712Z" fill="#333333"/>
<path fill-rule="evenodd" clip-rule="evenodd" d="M102.794 104.737C54.4851 103.464 30.7682 114.291 5.94881 146.149C26.6319 182.051 49.0623 197.22 95.6266 201.639C158.625 204.053 167.613 112.901 102.794 104.737ZM32.2178 147.107L31.8564 151.993L70.8127 154.875L51.566 166.794L53.5723 170.034L77.2781 155.353L94.799 156.649L78.3079 166.862L80.3143 170.102L101.264 157.127L116.496 158.254L97.2498 170.173L99.2562 173.413L122.962 158.732L135.258 159.642L135.619 154.756L124.054 153.9L101.998 135.241L99.5367 138.15L117.589 153.422L101.422 152.226L82.8016 136.474L80.3404 139.383L94.9563 151.748L78.371 150.521L56.3143 131.862L53.8531 134.771L71.9056 150.043L32.2178 147.107Z" fill="#333333"/>
<path fill-rule="evenodd" clip-rule="evenodd" d="M262.044 86.3427C210.164 20.8699 169.508 1.42525 99.7409 3.83942C75.0667 71.0767 79.8246 117.64 125.597 184.288C192.252 270.504 323.092 181.35 262.044 86.3427ZM127.597 39.7346L120.717 44.6732L160.093 99.5265L122.946 87.2211L120.874 93.4739L166.628 108.63L184.338 133.302L152.509 122.758L150.437 129.011L190.873 142.406L206.268 163.853L169.121 151.548L167.049 157.801L212.803 172.957L225.232 190.271L232.112 185.332L220.423 169.049L220.709 119.11L214.122 119.072L213.888 159.945L197.547 137.181L197.788 95.0214L191.202 94.9837L191.012 128.077L174.248 104.723L174.534 54.7828L167.947 54.7451L167.713 95.6193L127.597 39.7346Z" fill="#333333"/>
<path d="M329.432 292.349L377.907 222.702L395.179 230.502L413.566 248.889L362.306 316.307L329.432 301.264V292.349Z" fill="#333333"/>
<path d="M333.332 183.699L308.816 224.93L337.789 241.088V258.361H346.147L367.32 229.388L374.563 205.986L333.332 183.699Z" fill="#333333"/>
<path d="M268.699 405.456L195.152 296.806L230.254 237.745L247.526 213.229H258.113L277.614 222.144L293.215 229.945C298.415 232.359 309.039 237.3 309.93 237.745C310.822 238.191 315.502 240.16 317.731 241.088L323.303 242.76L331.103 245.546L333.889 250.56V255.018L332.217 265.047L331.103 282.877C324.788 289.934 311.713 304.049 309.93 304.049C307.702 304.049 307.144 303.492 305.473 302.935C303.801 302.378 302.13 301.263 300.458 300.706C298.787 300.149 296.001 299.035 295.444 299.035C294.887 299.035 290.986 296.806 289.872 296.249C288.98 295.803 288.015 294.949 287.643 294.577V292.349C287.829 291.42 288.089 289.228 287.643 287.891C287.086 286.22 287.086 283.434 287.086 282.877C287.086 282.319 287.086 280.091 286.529 278.976C285.972 277.862 282.629 276.748 281.514 276.19C280.623 275.745 279.657 273.776 279.286 272.847L277.614 271.176L273.714 269.504L270.928 271.733V276.748L262.013 290.12L265.356 292.349L270.928 294.02L281.514 300.149L287.086 302.935L293.772 308.507L298.23 314.079L338.904 375.368V388.74C338.904 389.112 338.458 389.966 336.675 390.412C335.56 390.412 332.217 393.755 331.66 394.869C331.214 395.761 328.874 397.469 327.76 398.212L331.66 400.441L338.904 401.555C339.275 402.298 340.018 403.895 340.018 404.341C340.018 404.787 341.132 406.384 341.689 407.127L342.247 443.344L343.918 445.572L345.59 447.244H347.818L346.704 412.142V408.799L348.933 407.684L350.604 405.456L353.947 404.341L355.619 402.67L355.062 400.441L352.833 399.327L350.604 397.098L348.933 394.869L347.818 383.726L341.689 368.682L312.159 325.222L306.587 317.422L309.93 311.85H317.174L346.704 317.422L360.076 326.894L378.463 345.28H386.821L395.736 339.151L422.48 317.422L420.251 339.151L408.551 386.512L386.821 420.499V512.434H255.327L268.699 405.456Z" fill="#333333"/>
<path d="M289.872 158.069L260.898 204.315L302.687 224.93L327.76 180.356L289.872 158.069Z" fill="#333333"/>
<path d="M419.137 257.804L368.434 316.864L388.492 338.037L399.636 328.565L423.037 309.621L438.638 292.906L442.538 282.877L425.823 261.147L419.137 257.804Z" fill="#333333"/>
</g>
<defs>
<clipPath id="clip0_406_2">
<rect width="512" height="512" fill="white"/>
</clipPath>
</defs>
</svg>
