<svg width="649" height="164" viewBox="0 0 649 164" fill="none" xmlns="http://www.w3.org/2000/svg">
<g clip-path="url(#clip0_404_169)">
<path d="M47.5074 153.929C39.8064 153.929 32.8105 152.302 26.5195 149.048C20.2286 145.794 15.2392 140.967 11.5514 134.568C7.97213 128.168 6.18247 120.196 6.18247 110.651V106.584H22.1267V113.58C22.1267 121.715 24.5129 128.06 29.2854 132.615C34.0578 137.062 40.1318 139.286 47.5074 139.286C54.8829 139.286 60.9569 137.062 65.7294 132.615C70.5018 128.06 72.888 121.715 72.888 113.58V43.2949H88.8323V110.651C88.8323 120.196 86.9884 128.168 83.3006 134.568C79.7213 140.967 74.7861 145.794 68.4952 149.048C62.3127 152.302 55.3168 153.929 47.5074 153.929ZM21.8013 46.5489V32.2316H88.8323V46.5489H21.8013ZM159.06 153.929C151.467 153.929 144.797 152.627 139.048 150.024C133.3 147.421 128.419 144.004 124.406 139.774C120.501 135.435 117.518 130.609 115.457 125.294C113.505 119.979 112.529 114.556 112.529 109.024V106.096C112.529 100.564 113.559 95.1409 115.62 89.8261C117.681 84.4029 120.718 79.5763 124.731 75.3461C128.744 71.0076 133.625 67.591 139.374 65.0963C145.122 62.4931 151.684 61.1915 159.06 61.1915C166.436 61.1915 172.998 62.4931 178.746 65.0963C184.495 67.591 189.376 71.0076 193.389 75.3461C197.402 79.5763 200.439 84.4029 202.5 89.8261C204.561 95.1409 205.591 100.564 205.591 106.096V109.024C205.591 114.556 204.561 119.979 202.5 125.294C200.548 130.609 197.565 135.435 193.552 139.774C189.647 144.004 184.82 147.421 179.072 150.024C173.323 152.627 166.652 153.929 159.06 153.929ZM159.06 139.937C165.568 139.937 171.099 138.527 175.655 135.707C180.319 132.778 183.844 128.873 186.23 123.992C188.725 119.111 189.972 113.634 189.972 107.56C189.972 101.378 188.725 95.8459 186.23 90.965C183.736 86.0841 180.156 82.2336 175.492 79.4136C170.937 76.5935 165.459 75.1834 159.06 75.1834C152.769 75.1834 147.292 76.5935 142.628 79.4136C137.964 82.2336 134.384 86.0841 131.89 90.965C129.395 95.8459 128.148 101.378 128.148 107.56C128.148 113.634 129.341 119.111 131.727 123.992C134.222 128.873 137.747 132.778 142.302 135.707C146.966 138.527 152.552 139.937 159.06 139.937ZM274.864 153.929C267.706 153.929 261.306 152.356 255.666 149.21C250.134 146.065 245.742 141.509 242.488 135.544C239.234 129.47 237.444 122.203 237.119 113.743H241.349V151H228.984V32.2316H244.603V89.9888L239.071 101.866C239.505 92.4293 241.403 84.7283 244.765 78.7628C248.128 72.7972 252.521 68.4044 257.944 65.5844C263.475 62.6558 269.549 61.1915 276.166 61.1915C282.348 61.1915 287.988 62.3847 293.086 64.7709C298.184 67.0486 302.577 70.2483 306.265 74.37C309.952 78.3831 312.772 83.1013 314.725 88.5246C316.677 93.8393 317.653 99.5879 317.653 105.77V108.699C317.653 114.881 316.623 120.684 314.562 126.107C312.61 131.531 309.735 136.357 305.939 140.587C302.143 144.709 297.587 147.963 292.273 150.349C287.066 152.735 281.264 153.929 274.864 153.929ZM273.075 140.262C278.932 140.262 284.029 138.852 288.368 136.032C292.707 133.212 296.069 129.361 298.455 124.48C300.841 119.491 302.035 113.743 302.035 107.235C302.035 100.727 300.787 95.0324 298.293 90.1515C295.906 85.2706 292.544 81.5286 288.205 78.9255C283.867 76.2139 278.823 74.8581 273.075 74.8581C267.868 74.8581 263.042 76.0512 258.595 78.4374C254.148 80.7151 250.568 84.0775 247.857 88.5246C245.253 92.8631 243.952 98.1237 243.952 104.306V111.79C243.952 117.756 245.308 122.854 248.019 127.084C250.731 131.314 254.31 134.568 258.757 136.845C263.204 139.123 267.977 140.262 273.075 140.262ZM343.433 151V32.2316H359.377V151H343.433ZM356.123 98.1236V83.8064L407.047 83.6437V97.961L356.123 98.1236ZM356.123 46.5489V32.2316H409.813V46.5489H356.123ZM481.887 151V124.969H479.283V94.8697C479.283 88.9042 477.711 84.4029 474.565 81.3659C471.528 78.3289 467.027 76.8104 461.061 76.8104C457.699 76.8104 454.228 76.8646 450.649 76.9731C447.07 77.0816 443.653 77.19 440.399 77.2985C437.145 77.407 434.325 77.5697 431.939 77.7866V64.1201C434.325 63.9032 436.82 63.7405 439.423 63.632C442.134 63.4151 444.9 63.3066 447.72 63.3066C450.54 63.1981 453.252 63.1439 455.855 63.1439C464.749 63.1439 472.016 64.2286 477.656 66.3978C483.297 68.4587 487.472 71.8753 490.184 76.6477C492.896 81.4201 494.251 87.8738 494.251 96.0086V151H481.887ZM453.415 153.278C446.907 153.278 441.267 152.193 436.494 150.024C431.83 147.746 428.197 144.492 425.594 140.262C423.099 136.032 421.852 130.934 421.852 124.969C421.852 118.786 423.207 113.634 425.919 109.512C428.739 105.391 432.806 102.3 438.121 100.239C443.436 98.0694 449.835 96.9848 457.319 96.9848H480.91V108.699H456.669C450.378 108.699 445.551 110.217 442.189 113.254C438.826 116.291 437.145 120.196 437.145 124.969C437.145 129.741 438.826 133.591 442.189 136.52C445.551 139.449 450.378 140.913 456.669 140.913C460.356 140.913 463.881 140.262 467.244 138.96C470.606 137.55 473.372 135.273 475.541 132.127C477.819 128.873 479.066 124.426 479.283 118.786L483.514 124.969C482.971 131.151 481.453 136.357 478.958 140.587C476.572 144.709 473.209 147.855 468.871 150.024C464.641 152.193 459.489 153.278 453.415 153.278ZM596.957 151V64.1201H609.322V99.9133H608.672C608.672 87.223 611.437 77.9493 616.969 72.0922C622.609 66.1267 631.015 63.1439 642.187 63.1439H645.116V77.1358H639.584C630.907 77.1358 624.236 79.4678 619.572 84.1318C614.908 88.6873 612.576 95.3036 612.576 103.981V151H596.957Z" fill="#333333"/>
<path d="M518.389 59.9102L522.49 54.9698L529.307 60.6281L525.207 65.5684L518.389 59.9102Z" fill="#333333"/>
<path d="M569.987 102.762L574.088 97.8215L591.58 112.34L587.48 117.28L569.987 102.762Z" fill="#333333"/>
<path fill-rule="evenodd" clip-rule="evenodd" d="M482.961 32.9893C469.032 32.6222 462.193 35.7441 455.036 44.9304C461 55.2826 467.468 59.6563 480.894 60.9307C499.06 61.6266 501.652 35.3434 482.961 32.9893ZM462.611 45.2067L462.506 46.6155L473.739 47.4464L468.19 50.8833L468.768 51.8175L475.604 47.5843L480.656 47.958L475.901 50.9028L476.479 51.837L482.52 48.0959L486.912 48.4208L481.362 51.8577L481.941 52.7918L488.776 48.5587L492.322 48.821L492.426 47.4121L489.091 47.1654L482.732 41.7851L482.022 42.624L487.227 47.0275L482.565 46.6827L477.196 42.1406L476.487 42.9795L480.701 46.5448L475.919 46.1911L469.559 40.8107L468.849 41.6495L474.054 46.0532L462.611 45.2067Z" fill="#333333"/>
<path fill-rule="evenodd" clip-rule="evenodd" d="M528.88 27.6855C513.921 8.80669 502.198 3.1999 482.081 3.89602C474.966 23.2836 476.338 36.71 489.536 55.9276C508.756 80.7876 546.483 55.0803 528.88 27.6855ZM490.113 14.2462L488.13 15.6702L499.483 31.487L488.772 27.9387L488.175 29.7417L501.368 34.112L506.474 41.226L497.297 38.1858L496.699 39.9888L508.359 43.8511L512.798 50.0354L502.087 46.4871L501.489 48.2901L514.682 52.6604L518.266 57.6528L520.25 56.2287L516.879 51.5335L516.962 37.1338L515.062 37.1229L514.995 48.9085L510.283 42.3442L510.353 30.1879L508.453 30.177L508.399 39.7192L503.565 32.9852L503.647 18.5854L501.748 18.5745L501.68 30.3601L490.113 14.2462Z" fill="#333333"/>
<path d="M548.311 87.0863L562.289 67.0039L567.269 69.2531L572.571 74.5549L557.79 93.9947L548.311 89.6569V87.0863Z" fill="#333333"/>
<path d="M549.436 55.7578L542.367 67.6466L550.721 72.3057V77.2861H553.131L559.236 68.9318L561.325 62.1841L549.436 55.7578Z" fill="#333333"/>
<path d="M530.799 119.7L509.592 88.3716L519.714 71.3417L524.694 64.2727H527.747L533.37 66.8433L537.868 69.0925C539.368 69.7887 542.431 71.2132 542.688 71.3417C542.945 71.4703 544.295 72.0379 544.937 72.3057L546.544 72.7877L548.793 73.591L549.597 75.0369V76.3222L549.115 79.214L548.793 84.3551C546.972 86.3902 543.202 90.4602 542.688 90.4602C542.046 90.4602 541.885 90.2995 541.403 90.1389C540.921 89.9782 540.439 89.6569 539.957 89.4962C539.475 89.3356 538.672 89.0143 538.511 89.0143C538.35 89.0143 537.226 88.3716 536.904 88.211C536.647 88.0824 536.369 87.8361 536.262 87.729V87.0864C536.315 86.8186 536.39 86.1867 536.262 85.8011C536.101 85.3191 536.101 84.5158 536.101 84.3551C536.101 84.1945 536.101 83.5518 535.94 83.2305C535.78 82.9092 534.816 82.5879 534.495 82.4272C534.237 82.2987 533.959 81.731 533.852 81.4633L533.37 80.9813L532.245 80.4993L531.442 81.142V82.5879L528.871 86.4437L529.835 87.0864L531.442 87.5683L534.495 89.3356L536.101 90.1389L538.029 91.7455L539.314 93.3521L551.042 111.025V114.88C551.042 114.988 550.914 115.234 550.4 115.362C550.078 115.362 549.115 116.326 548.954 116.648C548.825 116.905 548.151 117.397 547.829 117.612L548.954 118.254L551.042 118.576C551.15 118.79 551.364 119.25 551.364 119.379C551.364 119.507 551.685 119.968 551.846 120.182L552.006 130.625L552.488 131.268L552.97 131.75H553.613L553.292 121.628V120.664L553.934 120.343L554.416 119.7L555.38 119.379L555.862 118.897L555.702 118.254L555.059 117.933L554.416 117.29L553.934 116.648L553.613 113.435L551.846 109.097L543.331 96.5653L541.724 94.316L542.688 92.7094H544.777L553.292 94.316L557.147 97.0472L562.449 102.349H564.859L567.43 100.582L575.141 94.316L574.499 100.582L571.125 114.238L564.859 124.038V150.547H526.944L530.799 119.7Z" fill="#333333"/>
<path d="M536.904 48.3674L528.55 61.7022L540.6 67.6466L547.829 54.7938L536.904 48.3674Z" fill="#333333"/>
<path d="M574.177 77.1255L559.557 94.1554L565.341 100.26L568.554 97.5292L575.302 92.0668L579.8 87.247L580.925 84.3552L576.105 78.0894L574.177 77.1255Z" fill="#333333"/>
</g>
<defs>
<clipPath id="clip0_404_169">
<rect width="649" height="164" fill="white"/>
</clipPath>
</defs>
</svg>
