<svg width="320" height="148" viewBox="0 0 320 148" fill="none" xmlns="http://www.w3.org/2000/svg">
<g clip-path="url(#clip0_419_48)">
<path d="M306.623 0.330017H244.197C236.812 0.330017 230.82 6.51274 230.82 14.1333V133.762C230.82 141.382 236.812 147.565 244.197 147.565H306.623C314.008 147.565 320 141.382 320 133.762V14.1333C320 6.51274 314.008 0.330017 306.623 0.330017ZM275.41 138.363C270.477 138.363 266.492 134.251 266.492 129.161C266.492 124.071 270.477 119.958 275.41 119.958C280.343 119.958 284.328 124.071 284.328 129.161C284.328 134.251 280.343 138.363 275.41 138.363ZM306.623 107.305C306.623 109.203 305.118 110.756 303.279 110.756H247.541C245.702 110.756 244.197 109.203 244.197 107.305V17.5841C244.197 15.6862 245.702 14.1333 247.541 14.1333H303.279C305.118 14.1333 306.623 15.6862 306.623 17.5841V107.305Z" fill="#333333"/>
<path d="M64.2754 55.5389L68.4212 50.6939L75.3142 56.243L71.1684 61.088L64.2754 55.5389Z" fill="#333333"/>
<path d="M116.459 97.5029L120.605 92.6579L138.291 106.896L133.945 111.893L116.459 97.5029Z" fill="#333333"/>
<path fill-rule="evenodd" clip-rule="evenodd" d="M28.455 29.1373C14.3708 28.7774 7.45631 31.839 0.220409 40.848C6.2504 51.0005 12.7898 55.2899 26.3653 56.5396C44.7319 57.2222 47.3525 31.446 28.455 29.1373ZM7.87902 41.119L7.77365 42.5007L19.1312 43.3156L13.52 46.6861L14.1049 47.6022L21.0161 43.4508L26.1243 43.8173L21.3165 46.7053L21.9014 47.6214L28.0092 43.9526L32.4498 44.2712L26.8386 47.6417L27.4236 48.5579L34.3348 44.4064L37.9195 44.6636L38.0249 43.2819L34.6533 43.04L28.2229 37.7635L27.5054 38.5862L32.7684 42.9048L28.0549 42.5666L22.6263 38.1121L21.9087 38.9348L26.1699 42.4314L21.335 42.0845L14.9045 36.8079L14.1869 37.6306L19.45 41.9492L7.87902 41.119Z" fill="#333333"/>
<path fill-rule="evenodd" clip-rule="evenodd" d="M74.8824 23.936C59.7572 5.42142 47.9043 -0.0771973 27.5642 0.605486C20.3707 19.619 21.7578 32.7864 35.1024 51.6332C54.5352 76.0136 92.6807 50.8023 74.8824 23.936ZM35.6852 10.7561L33.6794 12.1527L45.1587 27.6638L34.3296 24.1843L33.7257 25.9526L47.0639 30.2382L52.2272 37.215L42.9484 34.2336L42.3446 36.0018L54.1324 39.7894L58.621 45.8544L47.7915 42.3748L47.1876 44.1431L60.5262 48.4289L64.1498 53.3252L66.1556 51.9286L62.7482 47.3244L62.8316 33.2019L60.9112 33.1913L60.8429 44.75L56.0787 38.3124L56.1491 26.3901L54.2288 26.3795L54.1735 35.738L49.2864 29.1344L49.3698 15.0114L47.4494 15.0007L47.3812 26.56L35.6852 10.7561Z" fill="#333333"/>
<path d="M94.5298 83.3799L108.662 63.0682L113.698 65.3431L119.058 70.7054L104.114 90.3672L94.5298 85.9798V83.3799Z" fill="#333333"/>
<path d="M95.6664 51.6935L88.519 63.7181L96.966 68.4304V73.4678H99.4026L105.575 65.0181L107.687 58.1933L95.6664 51.6935Z" fill="#333333"/>
<path d="M76.8235 116.366L55.3813 84.6799L65.6151 67.4555L70.6508 60.3058H73.7371L79.4226 62.9057L83.9709 65.1806C85.487 65.8847 88.5842 67.3255 88.8441 67.4555C89.104 67.5855 90.4685 68.1596 91.1183 68.4305L92.7427 68.9179L95.0169 69.7304L95.8291 71.1929V72.4928L95.3418 75.4177L95.0169 80.6175C93.1759 82.6758 89.3639 86.7923 88.8441 86.7923C88.1944 86.7923 88.0319 86.6298 87.5446 86.4673C87.0573 86.3048 86.57 85.9798 86.0826 85.8173C85.5953 85.6548 84.7831 85.3298 84.6207 85.3298C84.4582 85.3298 83.3211 84.6799 82.9963 84.5174C82.7364 84.3874 82.4548 84.1382 82.3465 84.0299V83.3799C82.4006 83.1091 82.4765 82.4699 82.3465 82.08C82.1841 81.5925 82.1841 80.78 82.1841 80.6175C82.1841 80.455 82.1841 79.805 82.0216 79.4801C81.8592 79.1551 80.8845 78.8301 80.5597 78.6676C80.2997 78.5376 80.0182 77.9634 79.9099 77.6926L79.4226 77.2051L78.2855 76.7177L77.4733 77.3676V78.8301L74.8742 82.7299L75.8489 83.3799L77.4733 83.8674L80.5597 85.6548L82.1841 86.4673L84.1333 88.0922L85.4329 89.7172L97.291 107.592V111.491C97.291 111.6 97.1611 111.849 96.6413 111.979C96.3164 111.979 95.3418 112.954 95.1793 113.279C95.0494 113.539 94.3671 114.037 94.0422 114.254L95.1793 114.904L97.291 115.229C97.3993 115.445 97.6159 115.911 97.6159 116.041C97.6159 116.171 97.9408 116.637 98.1032 116.854L98.2657 127.416L98.753 128.066L99.2403 128.553H99.8901L99.5652 118.316V117.341L100.215 117.016L100.702 116.366L101.677 116.041L102.164 115.554L102.002 114.904L101.352 114.579L100.702 113.929L100.215 113.279L99.8901 110.029L98.1032 105.642L89.4939 92.9671L87.8695 90.6921L88.8441 89.0672H90.9559L99.5652 90.6921L103.464 93.4545L108.824 98.8168H111.261L113.86 97.0294L121.657 90.6921L121.007 97.0294L117.596 110.841L111.261 120.754V147.565H72.9249L76.8235 116.366Z" fill="#333333"/>
<path d="M82.9963 44.2189L74.5493 57.7059L86.7324 63.7182L94.0422 50.7186L82.9963 44.2189Z" fill="#333333"/>
<path d="M120.683 73.3052L105.9 90.5296L111.748 96.7044L114.997 93.942L121.82 88.4172L126.368 83.5424L127.505 80.6175L122.632 74.2802L120.683 73.3052Z" fill="#333333"/>
<rect x="133.945" y="104.898" width="49.6612" height="6.99454" fill="#333333"/>
<path d="M179.06 108.396C179.06 102.794 183.601 98.2535 189.202 98.2535H208.89V118.538H189.202C183.601 118.538 179.06 113.997 179.06 108.396V108.396Z" fill="#333333"/>
<path d="M205.989 101.401H216.831C217.796 101.401 218.579 102.184 218.579 103.15V103.15C218.579 104.115 217.796 104.898 216.831 104.898H205.989V101.401Z" fill="#333333"/>
<path d="M205.989 111.893H216.831C217.796 111.893 218.579 112.676 218.579 113.642V113.642C218.579 114.607 217.796 115.39 216.831 115.39H205.989V111.893Z" fill="#333333"/>
<path d="M275.623 38.8C260.726 38.8 248.656 50.87 248.656 65.7672C248.656 80.6644 260.726 92.7344 275.623 92.7344C290.52 92.7344 302.59 80.6644 302.59 65.7672C302.59 50.87 290.52 38.8 275.623 38.8ZM284.322 57.0681C286.247 57.0681 287.802 58.623 287.802 60.5477C287.802 62.4724 286.247 64.0273 284.322 64.0273C282.397 64.0273 280.842 62.4724 280.842 60.5477C280.842 58.623 282.397 57.0681 284.322 57.0681ZM265.184 83.1654C262.302 83.1654 259.965 80.8819 259.965 78.0546C259.965 75.8799 263.064 71.4868 264.488 69.5948C264.836 69.1272 265.532 69.1272 265.88 69.5948C267.304 71.4868 270.404 75.8799 270.404 78.0546C270.404 80.8819 268.066 83.1654 265.184 83.1654ZM266.924 64.0273C264.999 64.0273 263.444 62.4724 263.444 60.5477C263.444 58.623 264.999 57.0681 266.924 57.0681C268.849 57.0681 270.404 58.623 270.404 60.5477C270.404 62.4724 268.849 64.0273 266.924 64.0273ZM285.431 80.7949C282.995 77.8807 279.418 76.2061 275.623 76.2061C273.318 76.2061 273.318 72.7264 275.623 72.7264C280.451 72.7264 285.007 74.8577 288.095 78.5766C289.596 80.3599 286.877 82.5456 285.431 80.7949Z" fill="#333333"/>
</g>
<defs>
<clipPath id="clip0_419_48">
<rect width="320" height="147.235" fill="white" transform="translate(0 0.330017)"/>
</clipPath>
</defs>
</svg>
